<?xml version="1.0" standalone="no"?>
<!DOCTYPE svg PUBLIC "-//W3C//DTD SVG 1.1//EN" "http://www.w3.org/Graphics/SVG/1.1/DTD/svg11.dtd" >
<!--
2013-9-30: Created.
-->
<svg>
<metadata>
Created by iconfont
</metadata>
<defs>

<font id="iconfont" horiz-adv-x="1024" >
  <font-face
    font-family="iconfont"
    font-weight="500"
    font-stretch="normal"
    units-per-em="1024"
    ascent="896"
    descent="-128"
  />
    <missing-glyph />
    
    <glyph glyph-name="localico" unicode="&#58922;" d="M512 384m-485.052632 0a485.052632 485.052632 0 1 1 970.105264 0 485.052632 485.052632 0 1 1-970.105264 0ZM512 33.684211S269.473684 327.033263 269.473684 452.769684 378.071579 680.421053 512 680.421053 754.526316 578.506105 754.526316 452.769684 512 33.684211 512 33.684211z m-2.533053 515.98821c-56.966737 0-103.208421-43.385263-103.208421-96.956632 0-53.517474 46.241684-96.902737 103.208421-96.902736 57.074526 0 103.262316 43.385263 103.262316 96.902736s-46.187789 96.956632-103.262316 96.956632z"  horiz-adv-x="1024" />

    
    <glyph glyph-name="arrow-right" unicode="&#58923;" d="M802.133333 384c0-18.363733-6.9632-36.693333-20.855466-50.688l-437.725867-440.32a70.997333 70.997333 0 0 0-100.795733 0 72.021333 72.021333 0 0 0 0 101.410133L630.033067 384 242.756267 773.597867a72.021333 72.021333 0 0 0 0 101.376 70.997333 70.997333 0 0 0 100.795733 0L781.312 434.722133c13.892267-13.994667 20.855467-32.324267 20.855467-50.688z"  horiz-adv-x="1024" />

    
    <glyph glyph-name="arrow-left" unicode="&#58924;" d="M221.866667 384c0-18.363733 6.9632-36.693333 20.855466-50.688l437.725867-440.32a70.997333 70.997333 0 0 1 100.795733 0 72.021333 72.021333 0 0 1 0 101.410133L393.966933 384 781.243733 773.597867a72.021333 72.021333 0 0 1 0 101.376 70.997333 70.997333 0 0 1-100.795733 0L242.688 434.722133C228.829867 420.693333 221.866667 402.363733 221.866667 384z"  horiz-adv-x="1024" />

    
    <glyph glyph-name="title-right" unicode="&#58928;" d="M102.4 793.6m-102.4 0a102.4 102.4 0 1 1 204.8 0 102.4 102.4 0 1 1-204.8 0ZM102.4 384m-102.4 0a102.4 102.4 0 1 1 204.8 0 102.4 102.4 0 1 1-204.8 0ZM102.4-25.6m-102.4 0a102.4 102.4 0 1 1 204.8 0 102.4 102.4 0 1 1-204.8 0ZM512 793.6m-102.4 0a102.4 102.4 0 1 1 204.8 0 102.4 102.4 0 1 1-204.8 0ZM512 384m-102.4 0a102.4 102.4 0 1 1 204.8 0 102.4 102.4 0 1 1-204.8 0ZM512-25.6m-102.4 0a102.4 102.4 0 1 1 204.8 0 102.4 102.4 0 1 1-204.8 0ZM921.6 793.6m-102.4 0a102.4 102.4 0 1 1 204.8 0 102.4 102.4 0 1 1-204.8 0ZM921.6 384m-102.4 0a102.4 102.4 0 1 1 204.8 0 102.4 102.4 0 1 1-204.8 0ZM921.6-25.6m-102.4 0a102.4 102.4 0 1 1 204.8 0 102.4 102.4 0 1 1-204.8 0ZM1331.2 793.6m-102.4 0a102.4 102.4 0 1 1 204.8 0 102.4 102.4 0 1 1-204.8 0ZM1331.2 384m-102.4 0a102.4 102.4 0 1 1 204.8 0 102.4 102.4 0 1 1-204.8 0ZM1331.2-25.6m-102.4 0a102.4 102.4 0 1 1 204.8 0 102.4 102.4 0 1 1-204.8 0ZM1740.8 793.6m-102.4 0a102.4 102.4 0 1 1 204.8 0 102.4 102.4 0 1 1-204.8 0ZM1740.8 384m-102.4 0a102.4 102.4 0 1 1 204.8 0 102.4 102.4 0 1 1-204.8 0ZM1740.8-25.6m-102.4 0a102.4 102.4 0 1 1 204.8 0 102.4 102.4 0 1 1-204.8 0Z"  horiz-adv-x="1843" />

    
    <glyph glyph-name="rightarrow" unicode="&#58929;" d="M768 384l-512-448v896z"  horiz-adv-x="1024" />

    
    <glyph glyph-name="down-arrow-selected" unicode="&#58930;" d="M1737.728 846.2336L868.9664-22.528 0 846.2336 868.9664 855.04"  horiz-adv-x="1843" />

    
    <glyph glyph-name="downarrow" unicode="&#58932;" d="M779.52-100.736L23.04 713.6a88.832 88.832 0 0 0 0 116.48 74.24 74.24 0 0 0 108.032 0L834.176 72.96 1534.08 826.752a74.24 74.24 0 0 0 108.032 0 88.832 88.832 0 0 0 0-116.48L888.96-100.608c-32-32.768-79.104-32.768-109.568 0z"  horiz-adv-x="1664" />

    
    <glyph glyph-name="uparrow" unicode="&#58933;" d="M779.52 868.736L23.04 54.4a88.832 88.832 0 0 1 0-116.48 74.24 74.24 0 0 1 108.032 0L834.176 695.04l699.904-753.792a74.24 74.24 0 0 1 108.032 0 88.832 88.832 0 0 1 0 116.48L888.96 868.608c-32 32.768-79.104 32.768-109.568 0z"  horiz-adv-x="1664" />

    
    <glyph glyph-name="addico" unicode="&#58974;" d="M438.869333 457.130667H73.642667a73.216 73.216 0 0 1 0-146.261334h365.226666v-365.226666a73.216 73.216 0 0 1 146.261334 0v365.226666h365.226666a73.216 73.216 0 0 1 0 146.261334h-365.226666V822.357333a73.216 73.216 0 0 1-146.261334 0v-365.226666z"  horiz-adv-x="1024" />

    
    <glyph glyph-name="close" unicode="&#58975;" d="M22.0316 874.13428a62.453008 62.453008 0 0 1 0-95.11286l394.8873-394.8873L22.0316-10.855561a67.367343 67.367343 0 0 1 95.11286-95.112861L512.03176 289.02126l394.8873-394.989682a62.453008 62.453008 0 0 1 95.11286 0 62.453008 62.453008 0 0 1 0 95.215243L607.14462 384.031738l394.8873 394.8873a62.453008 62.453008 0 0 1 0 95.215242C972.648291 895.941642 928.726422 903.108381 906.91906 874.13428L512.03176 479.246981 117.14446 874.13428a62.760154 62.760154 0 0 1-95.11286 0z"  horiz-adv-x="1024" />

    
    <glyph glyph-name="backico" unicode="&#58976;" d="M494.1824 648.260267V776.738133a57.344 57.344 0 0 1-96.392533 41.847467L77.2096 519.236267a57.344 57.344 0 0 1 0-80.827734l317.713067-297.642666a57.344 57.344 0 0 1 96.392533 41.847466V332.253867c438.6816 16.657067 630.784-436.4288 630.784-411.784534 1.979733 471.04-207.394133 713.659733-627.9168 727.790934z"  horiz-adv-x="1160" />

    
    <glyph glyph-name="down-arrowico" unicode="&#58977;" d="M2047.655661 0.541752a127.717931 127.717931 0 0 0-211.225808-97.016505L1024.274807 599.628905 212.017422-96.474753A127.820269 127.820269 0 1 0 45.513357 97.660595l895.458248 767.535641a127.922607 127.922607 0 0 0 166.504065 0l895.458248-767.535641c29.575707-25.277507 44.721743-61.095837 44.721743-97.118843z"  horiz-adv-x="2048" />

    
    <glyph glyph-name="delect" unicode="&#58978;" d="M141.184 632.064h720l-47.744-672.192a51.456 51.456 0 0 0-51.456-47.872H240.448a51.456 51.456 0 0 0-51.456 47.872L141.184 632.064z m290.112-138.88a39.616 39.616 0 0 1-42.24 36.032 39.616 39.616 0 0 1-42.112-36.032v-339.456c1.92-21.44 20.608-37.44 42.176-35.968a39.616 39.616 0 0 1 42.176 35.968V493.184z m205.696 0a39.616 39.616 0 0 1-42.176 36.032 39.616 39.616 0 0 1-42.176-36.032v-339.456c1.92-21.44 20.672-37.44 42.24-35.968a39.616 39.616 0 0 1 42.112 35.968V493.184z m-392.96 241.728V837.824a51.456 51.456 0 0 0 51.456 51.392h411.456c28.416 0 51.456-23.04 51.456-51.392v-102.912h154.24a51.456 51.456 0 0 0 0-102.848H89.792a51.456 51.456 0 0 0 0 102.848h154.304z m77.184 25.728h360V812.16H321.28v-51.456z"  horiz-adv-x="1024" />

    
    <glyph glyph-name="liulanshu" unicode="&#58979;" d="M768 588.8a172.8 172.8 0 1 0 0-345.6A172.8 172.8 0 0 0 768 588.8z m0 115.2A288 288 0 1 1 768 128a288 288 0 0 1 0 576zM768 785.066667c323.413333 0 493.738667-197.205333 628.650667-369.066667C1261.738667 243.882667 1091.413333 46.848 768 46.848S274.261333 244.053333 139.349333 416C274.261333 588.117333 444.586667 785.152 768 785.152zM768 896C343.893333 896 143.189333 598.613333 0 416c143.189333-182.613333 343.893333-480 768-480s624.810667 297.386667 768 480C1392.810667 598.613333 1192.106667 896 768 896z"  horiz-adv-x="1536" />

    
    <glyph glyph-name="peopleico" unicode="&#58980;" d="M565.6064 246.4256c121.5488 0 281.2928 161.2288 281.2928 365.1072S744.3968 896 565.6064 896 279.552 817.7664 279.552 611.5328c0-202.496 164.5056-365.056 286.0544-365.056z m556.032-266.0864c-13.6192 38.4-29.952 76.288-45.824 93.1328-29.5936 31.232-199.2704 120.7296-274.2784 159.5392a40.8576 40.8576 0 0 1-54.6816-16.7424l-85.6576-157.5936c-12.0832-22.272-45.7216-16.128-49.152 8.9088a26.0608 26.0608 0 0 0 2.7648 15.616l18.944 35.9424a25.9584 25.9584 0 0 1-3.1744 28.928l-36.2496 42.7008a40.8576 40.8576 0 0 1-62.3616 0l-36.1472-42.7008a26.0096 26.0096 0 0 1-3.1744-28.928l18.944-35.9424c2.56-4.7616 3.4816-10.24 2.7648-15.616-3.4304-25.088-37.0688-31.1296-49.152-8.9088l-85.7088 157.6448a40.8576 40.8576 0 0 1-54.6304 16.6912c-75.008-38.7584-244.736-128.3072-274.2784-159.5392-15.872-16.7936-32.256-54.6816-45.824-93.0816A81.2544 81.2544 0 0 1 81.5616-128h963.1744a81.2032 81.2032 0 0 1 76.9024 108.3392z"  horiz-adv-x="1126" />

    
    <glyph glyph-name="saveico" unicode="&#58981;" d="M341.333333 76.8h136.533334v-204.8H341.333333v204.8z m659.2512 819.2c12.970667 0 23.415467-10.513067 23.415467-23.415467v-977.169066c0-12.970667-10.513067-23.415467-23.415467-23.415467H698.368v0.136533h0.682667v298.461867H228.1472V-128H156.603733L0 26.555733V872.584533C0 885.5552 10.513067 896 23.415467 896h977.169066z m-140.014933-515.345067V840.021333H163.4304v-459.298133h697.1392z"  horiz-adv-x="1024" />

    
    <glyph glyph-name="look" unicode="&#58982;" d="M757.394286-75.776c-257.828571 0-539.721143 161.938286-678.912 447.414857-11.995429 24.356571-11.995429 45.348571 0 67.876572C221.110857 730.258286 494.445714 881.737143 772.827429 881.737143c269.897143 1.755429 546.523429-205.385143 663.405714-445.659429 8.557714-17.408 6.875429-45.275429-1.755429-62.683428-116.809143-252.416-424.448-449.097143-677.083428-449.097143z m312.758857 480.548571c0 177.517714-137.508571 318.537143-312.758857 318.537143-175.323429 0-314.514286-139.264-314.514286-316.854857s137.508571-318.537143 312.758857-318.537143c175.323429 0 314.514286 139.264 314.514286 316.781715z m-316.196572-189.805714A188.342857 188.342857 0 0 0 568.32 408.210286c1.682286 106.203429 89.380571 191.488 194.194286 187.977143a190.610286 190.610286 0 0 0 183.881143-194.925715c-3.437714-106.203429-89.380571-189.805714-192.438858-186.294857z"  horiz-adv-x="1462" />

    
    <glyph glyph-name="time" unicode="&#58984;" d="M512-128a512 512 0 1 0 512 512 512.585143 512.585143 0 0 0-512-512zM512 793.6A409.6 409.6 0 1 1 921.6 384 410.038857 410.038857 0 0 1 512 793.6z m192.365714-510.464l-204.8 51.2A51.2 51.2 0 0 0 460.8 384V640a51.2 51.2 0 0 0 102.4 0v-215.990857l166.034286-41.545143a51.2 51.2 0 1 0-24.868572-99.328z"  horiz-adv-x="1024" />

    
    <glyph glyph-name="sousuoico" unicode="&#58985;" d="M404.189466 896a404.189466 404.189466 0 1 1 0-808.378932 404.189466 404.189466 0 0 1 0 808.378932z m0-728.564985a324.752763 324.752763 0 0 0-324.375519 324.429411c0 178.81342 145.508208 324.321627 324.375519 324.321627s324.375519-145.508208 324.375519-324.375519-145.508208-324.375519-324.375519-324.375519z m606.930902-221.064692a43.383003 43.383003 0 0 0 0-61.544583 43.706354 43.706354 0 0 0-61.814042 0L754.487003 78.782792A530.566039 530.566039 0 0 1 815.115423 141.512997l196.004945-195.142674z"  horiz-adv-x="1024" />

    
    <glyph glyph-name="tree-selected" unicode="&#58987;" d="M0 896m128 0l768 0q128 0 128-128l0-768q0-128-128-128l-768 0q-128 0-128 128l0 768q0 128 128 128ZM876.416 667.456C642.944 529.152 473.6 354.496 397.184 266.88L210.56 408.32 128 344.064l322.176-316.608c55.296 137.152 231.168 405.248 445.824 595.84l-19.584 44.16z"  horiz-adv-x="1024" />

    
    <glyph glyph-name="tree-file" unicode="&#58989;" d="M987.560198 800.595012h-469.33216V860.413529A36.010577 36.010577 0 0 1 481.790796 895.99744H121.770362A36.010577 36.010577 0 0 1 85.33312 860.413529v-335.359162c0-19.626618 16.298626-35.583911 36.437242-35.583911h301.652579c5.887985-11.946637 18.261288-20.138616 32.682585-20.138616h531.454672A36.010577 36.010577 0 0 1 1023.99744 504.915751V765.011101a36.010577 36.010577 0 0 1-36.437242 35.583911zM105.557069 554.66496L85.33312 639.99808h1023.99744v-71.082489zM1086.290618-52.736188c0-23.551941-21.33328-75.263812-41.471897-75.263812H174.250231c-20.053283 0-34.218581 30.378591-34.218581 53.930532L0 597.33152c0 23.551941 16.298626 42.66656 36.437242 42.66656h1121.789196c20.138616 0 36.437242-19.114619 36.437242-42.66656l-108.373062-650.067708zM170.66624 725.3312h853.3312v-42.66656H170.66624z"  horiz-adv-x="1194" />

    
    <glyph glyph-name="treeroot-zk" unicode="&#58990;" d="M32 864m128 0l704 0q128 0 128-128l0-704q0-128-128-128l-704 0q-128 0-128 128l0 704q0 128 128 128ZM192 384h640v-64H192z"  horiz-adv-x="1024" />

    
    <glyph glyph-name="tree-stjico" unicode="&#58991;" d="M1104.164571 896H86.528C43.154286 896 0 862.72 0 819.2V179.2h1170.285714V819.2C1170.285714 862.72 1144.832 896 1104.164571 896zM0 102.4c0-43.52 43.227429-76.8 86.528-76.8h473.234286v-102.4h-244.297143c-15.286857 0-25.453714-10.24-25.453714-25.6 0-15.36 10.24-25.6 25.453714-25.6h559.689143c15.286857 0 25.453714 10.24 25.453714 25.6 0 15.36-10.24 25.6-25.453714 25.6H610.596571v102.4h493.568c43.227429 0 66.121143 33.28 66.121143 76.8v25.6H0v-25.6z"  horiz-adv-x="1170" />

    
    <glyph glyph-name="treeshouqi" unicode="&#58992;" d="M0 896m128 0l768 0q128 0 128-128l0-768q0-128-128-128l-768 0q-128 0-128 128l0 768q0 128 128 128ZM480 416V704h64v-288H832v-64H544V64h-64V352H192v64h288z"  horiz-adv-x="1024" />

    
    <glyph glyph-name="up-arrowico" unicode="&#58993;" d="M0.001024 767.470322A127.705934 127.705934 0 0 0 211.206991 864.477714L1023.285748 168.439445 1835.466833 864.477714a127.808262 127.808262 0 1 0 166.488425-194.117112l-895.374133-767.463543a127.91059 127.91059 0 0 0-166.488425 0l-895.374134 767.463543A127.501277 127.501277 0 0 0 0.001024 767.470322z"  horiz-adv-x="2048" />

    
    <glyph glyph-name="upfile" unicode="&#58994;" d="M512.033032-127.998018c-136.753019 0-265.31407 53.214762-362.032147 149.866775A508.694805 508.694805 0 0 0 0.001982 384.033032c0 136.786051 53.280826 265.413166 149.965871 362.098211A508.727837 508.727837 0 0 0 512 895.998018c136.753019 0 265.31407-53.214762 361.966083-149.866775A508.430548 508.430548 0 0 0 1023.998018 384.066064a508.331452 508.331452 0 0 0-150.031935-362.131243A508.496612 508.496612 0 0 0 512.033032-127.998018z m0 957.931776c-119.179926 0-231.224911-46.410143-315.423811-130.675107A443.059962 443.059962 0 0 1 66.066242 384c0-119.080829 46.344079-231.059751 130.509947-315.225618A442.960866 442.960866 0 0 1 512-61.933758c119.146894 0 231.224911 46.410143 315.423811 130.675107A442.960866 442.960866 0 0 1 957.933758 384c0 119.080829-46.344079 231.026719-130.509947 315.192586A442.894802 442.894802 0 0 1 512 829.933758z m276.611058-392.256546a37.161146 37.161146 0 1 0 0-74.322293h-222.966878v-222.966879a37.161146 37.161146 0 1 0-74.322293 0v222.966879h-222.966879a37.161146 37.161146 0 0 0 0 74.322293h222.966879v222.966878a37.161146 37.161146 0 0 0 74.322293 0v-222.966878h222.966878z"  horiz-adv-x="1024" />

    
    <glyph glyph-name="wornico" unicode="&#58996;" d="M511.948032 896C229.273256 896 0 666.777944 0 383.898368c0-75.263887 16.230376-146.84138 45.465532-211.199683l80.895878 38.604742a419.99297 419.99297 0 0 0-36.710344 172.543741 422.399366 422.399366 0 1 0 422.296966-422.296966 419.94177 419.94177 0 0 0-240.383639 75.059087l-55.807917-62.361506a4.454393 4.454393 0 0 0 2.713596-3.942394c0-1.638398 0.3072-3.481595-1.331198-4.249594A505.138442 505.138442 0 0 1 512.050432-127.998464C794.725208-127.998464 1023.998464 101.223592 1023.998464 384.103168S794.622808 896 511.948032 896zM511.999232 691.200307c28.211158 0 51.199923-22.118367 51.199923-49.561525v-333.8747c0-27.340759-22.835166-49.561526-51.199923-49.561525-28.211158 0-51.199923 22.118367-51.199923 49.561525V641.536382C460.799309 668.979541 483.788074 691.200307 511.999232 691.200307z m0-515.224827c28.211158 0 51.199923-22.169567 51.199923-49.612726 0-27.289559-22.835166-49.561526-51.199923-49.561525-28.211158 0-51.199923 22.118367-51.199923 49.561525 0 27.340759 22.988766 49.612726 51.199923 49.612726z"  horiz-adv-x="1024" />

    
    <glyph glyph-name="worn-biaoshi" unicode="&#58997;" d="M1072.698776-126.722752L561.949301 120.110357 51.199825-126.747727C25.574937-132.567024 0-117.107175 0-95.603248V896h1123.898601v-991.70315c0-21.404024-25.475035-36.963776-51.199825-31.019602zM574.412087 796.097902C408.924262 796.097902 274.730769 661.929385 274.730769 496.316682c0-44.056825 9.490699-85.94078 26.623909-123.628846l47.37857 22.602849a245.834087 245.834087 0 0 0-21.528902 101.025997c0 136.541192 110.641573 247.282668 247.207741 247.282668 136.541192 0 247.182766-110.666549 247.182766-247.257693A247.182766 247.182766 0 0 0 574.437063 249.083965a245.834087 245.834087 0 0 0-140.712105 43.956923l-32.692962-36.539192a2.62243 2.62243 0 0 0 1.598434-2.297748c0-0.94907 0.199804-2.047993-0.749266-2.497553A295.685234 295.685234 0 0 1 574.437063 196.685315C739.949864 196.685315 874.143357 330.853832 874.143357 496.466535 874.143357 662.054262 739.874937 796.097902 574.412087 796.097902zM574.437063 671.22028c13.761514 0 24.975524-11.688545 24.975524-26.199325v-176.427105c0-14.435853-11.139084-26.224301-24.975524-26.224301-13.761514 0-24.975524 11.713521-24.975525 26.224301V644.995979C549.461538 659.456808 560.675549 671.22028 574.437063 671.22028z m0-272.283168c13.761514 0 24.975524-11.688545 24.975524-26.199325 0-14.435853-11.139084-26.199325-24.975524-26.199325-13.761514 0-24.975524 11.688545-24.975525 26.199325 0 14.435853 11.21401 26.199325 24.975525 26.199325z"  horiz-adv-x="1123" />

    
    <glyph glyph-name="calendar" unicode="&#58999;" d="M254.656 685.952a50.368 50.368 0 0 0-50.304 50.304V836.864a50.368 50.368 0 0 0 100.608 0v-100.608a50.368 50.368 0 0 0-50.304-50.304zM959.168 786.56c27.712 0 50.304-22.592 50.304-50.304v-805.12a50.368 50.368 0 0 0-50.304-50.368H53.376a50.368 50.368 0 0 0-50.304 50.368V736.256c0 27.712 22.528 50.304 50.304 50.304h50.304v-50.304c0-83.2 67.776-150.976 150.976-150.976s150.976 67.776 150.976 150.976V786.56h201.28v-50.304c0-83.2 67.776-150.976 150.976-150.976S908.8 653.056 908.8 736.256V786.56h50.304zM908.8 1.664v462.72a20.16 20.16 0 0 1-20.224 20.288H123.84a20.16 20.16 0 0 1-20.16-20.224v-462.784c0-11.328 9.152-20.224 20.224-20.224h764.736a20.16 20.16 0 0 1 20.224 20.224zM757.76 685.952a50.368 50.368 0 0 0-50.24 50.304V836.864a50.368 50.368 0 0 0 100.608 0v-100.608a50.368 50.368 0 0 0-50.304-50.304zM536.448 384c11.264 0 20.224-8.96 20.224-20.224v-60.416a20.16 20.16 0 0 0-20.224-20.224h-60.416a20.16 20.16 0 0 0-20.224 20.224v60.416c0 11.328 9.088 20.224 20.224 20.224h60.416zM284.8 182.72c11.264 0 20.16-8.96 20.16-20.224v-60.416a20.16 20.16 0 0 0-20.16-20.224h-60.48a20.16 20.16 0 0 0-20.16 20.224v60.416c0 11.328 9.088 20.224 20.16 20.224h60.48z m251.52 0c11.328 0 20.288-8.96 20.288-20.224v-60.416a20.16 20.16 0 0 0-20.224-20.224h-60.416a20.16 20.16 0 0 0-20.224 20.224v60.416c0 11.328 9.088 20.224 20.224 20.224h60.416z m251.648 0c11.136 0 20.224-8.96 20.224-20.224v-60.416a20.16 20.16 0 0 0-20.224-20.224h-60.416a20.16 20.16 0 0 0-20.224 20.224v60.416c0 11.328 9.152 20.224 20.224 20.224h60.416z m0 201.28c11.328 0 20.224-8.96 20.224-20.224v-60.416a20.16 20.16 0 0 0-20.224-20.224h-60.416a20.16 20.16 0 0 0-20.224 20.224v60.416c0 11.328 9.152 20.224 20.224 20.224h60.416z"  horiz-adv-x="1024" />

    
    <glyph glyph-name="search-xiajiantou" unicode="&#59000;" d="M397.455526 844.865371l574.538232-656.615123 574.392964 656.615123 297.220031 23.243013-871.612995-996.108384-871.612995 996.108384z"  horiz-adv-x="1888" />

    
    <glyph glyph-name="optionedico" unicode="&#59003;" d="M902.888767 334.0435c2.12114 16.383977 3.657138 33.060524 3.657138 49.9565 0 16.895976-1.535998 33.499381-3.657138 49.9565l111.250127 84.699308a25.087964 25.087964 0 0 1 6.36342 32.767953l-105.325564 177.371175c-6.582848 11.044556-20.1874 15.652549-32.036526 11.044556l-131.071813-51.492498a402.065711 402.065711 0 0 1-88.868444 50.468499L643.451424 874.495299A26.84339 26.84339 0 0 1 617.120033 895.999269H406.688333a26.331391 26.331391 0 0 1-26.03882-21.50397l-19.748543-135.679806a392.045154 392.045154 0 0 1-88.941587-50.468499l-130.925527 51.492498a26.697105 26.697105 0 0 1-32.182811-10.971413L3.525481 551.350618c-6.582848-10.971413-3.657138-24.868536 6.363419-32.767953l111.030699-84.699308c-2.194283-16.383977-3.657138-33.060524-3.657138-49.9565 0-16.895976 1.462855-33.499381 3.657138-49.9565L9.8889 249.417335a25.087964 25.087964 0 0 1-6.363419-32.767953l105.325564-177.371175c6.582848-11.044556 20.1874-15.652549 32.036525-11.044556l131.071813 51.492498c27.062818-20.260542 56.831919-37.375947 88.868444-50.468499l19.748544-135.679807A26.331391 26.331391 0 0 1 406.688333-127.999269h210.504842a26.331391 26.331391 0 0 1 26.03882 21.50397l19.748544 135.679806a392.045154 392.045154 0 0 1 88.941587 50.468499l130.99867-51.492498c11.849126-4.388565 25.599963 0 32.182811 10.971413l105.179278 177.444318c6.582848 10.971413 3.657138 24.868536-6.290276 32.767953l-111.030699 84.699308zM511.867612 204.800256C410.0529 204.800256 327.69416 284.964713 327.69416 384s82.358739 179.199744 184.173452 179.199744S696.041063 483.035287 696.041063 384 613.682323 204.800256 511.867612 204.800256z"  horiz-adv-x="1024" />

    
    <glyph glyph-name="selectkdarrow" unicode="&#59004;" d="M704-128L0 896h1408z"  horiz-adv-x="1408" />

    
    <glyph glyph-name="selectallico" unicode="&#59005;" d="M13.1072 854.698667m136.533333 0l682.666667 0q136.533333 0 136.533333-136.533334l0-682.666666q0-136.533333-136.533333-136.533334l-682.666667 0q-136.533333 0-136.533333 136.533334l0 682.666666q0 136.533333 136.533333 136.533334ZM190.941867 431.445333h600.064c15.018667 0 40.96-24.439467 40.96-54.613333 0-30.173867-25.941333-54.613333-40.96-54.613333h-600.064c-15.018667 0-40.96 24.439467-40.96 54.613333 0 30.173867 25.941333 54.613333 40.96 54.613333z"  horiz-adv-x="1024" />

    
    <glyph glyph-name="selectedico" unicode="&#59006;" d="M13.1072 853.538133m136.533333 0l682.666667 0q136.533333 0 136.533333-136.533333l0-682.666667q0-136.533333-136.533333-136.533333l-682.666667 0q-136.533333 0-136.533333 136.533333l0 682.666667q0 136.533333 136.533333 136.533333Z"  horiz-adv-x="1024" />

    
    <glyph glyph-name="searchico" unicode="&#59007;" d="M235.152561 661.053795a256.211869 256.211869 0 0 1 0-361.910095l45.209226 45.209226a192.178592 192.178592 0 0 0 0 271.491643l-45.209226 45.209226zM415.910704 896A416.413204 416.413204 0 0 1 0.048832 480.059367a416.413204 416.413204 0 0 1 415.940634-416.019395 416.413204 416.413204 0 0 1 416.019395 416.019395A416.413204 416.413204 0 0 1 415.910704 896z m0-767.926752A352.379927 352.379927 0 0 0 64.082109 480.059367 352.379927 352.379927 0 0 0 415.910704 831.966723 352.379927 352.379927 0 0 0 767.975584 480.138128 352.379927 352.379927 0 0 0 415.989466 128.073248z m579.843769-227.85765a95.695488 95.695488 0 0 0-135.706441 0l-178.395291 172.881971 44.500371 45.918082 178.7891-173.27578a31.977258 31.977258 0 1 1 45.603034 44.894179L777.033181 169.895721l45.918082 44.579132 173.27578-178.7891c17.721387-17.721387 27.724125-41.822472 27.724125-67.498792 0-25.67632-10.002738-49.777406-28.117934-67.892601z"  horiz-adv-x="1024" />

    
    <glyph glyph-name="eemp-logo" unicode="&#58995;" d="M221.866667 384c0-18.363733 6.9632-36.693333 20.855466-50.688l437.725867-440.32a70.997333 70.997333 0 0 1 100.795733 0 72.021333 72.021333 0 0 1 0 101.410133L393.966933 384 781.243733 773.597867a72.021333 72.021333 0 0 1 0 101.376 70.997333 70.997333 0 0 1-100.795733 0L242.688 434.722133C228.829867 420.693333 221.866667 402.363733 221.866667 384z"  horiz-adv-x="1024" />

    


  </font>
</defs>
</svg>
